<svg width="20" height="20" viewBox="0 0 20 20" fill="none" xmlns="http://www.w3.org/2000/svg">
<path fill-rule="evenodd" clip-rule="evenodd" d="M15.9375 10C15.9379 11.2886 15.4959 12.5384 14.6853 13.5402C13.8747 14.5419 12.7448 15.235 11.4844 15.5035C10.224 15.772 8.90967 15.5995 7.76119 15.0151C6.61272 14.4306 5.69975 13.4695 5.175 12.2925L3.43625 12.9987C4.12553 14.5781 5.33754 15.8719 6.86852 16.6628C8.3995 17.4537 10.1561 17.6933 11.843 17.3414C13.5298 16.9896 15.0441 16.0676 16.1313 14.7307C17.2184 13.3937 17.8121 11.7232 17.8125 10C17.8126 8.43466 17.3229 6.90854 16.412 5.6355C15.5012 4.36246 14.2148 3.40631 12.7333 2.90107C11.2517 2.39583 9.64922 2.3668 8.15034 2.81807C6.65146 3.26934 5.33135 4.17828 4.375 5.4175V3.125H2.5V8.125L3.4375 9.0625H7.8125V7.1875H5.44C6.05888 6.11459 7.01459 5.27595 8.15881 4.80171C9.30304 4.32748 10.5718 4.24417 11.7682 4.56471C12.9646 4.88525 14.0218 5.59173 14.7757 6.5745C15.5295 7.55727 15.9379 8.76139 15.9375 10Z" fill="#292929"/>
</svg>
